<svg xmlns="http://www.w3.org/2000/svg" width="1600" height="1100" viewBox="0 0 1600 1100"><rect width="100%" height="100%" fill="#dedbd3"/>
<rect x="60" y="60" width="1480" height="980" fill="#f7f5ef" stroke="#343036" stroke-width="3"/><text x="110" y="145" font-family="monospace" font-size="34" fill="#343036">PRUDINA CLINIC / PROTECTED RECORD AUDIT</text><line x1="110" y1="180" x2="1490" y2="180" stroke="#343036" stroke-width="3"/>
<g font-family="monospace" font-size="26" fill="#343036"><text x="110" y="245">TIME</text><text x="330" y="245">ACCOUNT</text><text x="720" y="245">SECTION</text><text x="1120" y="245">RESULT</text><text x="110" y="315">07:14</text><text x="330" y="315">CLINIC-LAB-04</text><text x="720" y="315">BIOCHEMISTRY</text><text x="1120" y="315">VIEW</text><text x="110" y="385">07:16</text><text x="330" y="385">RP-SERVICE-02</text><text x="720" y="385">BIOCHEMISTRY</text><text x="1120" y="385">VIEW</text><text x="110" y="455">07:17</text><text x="330" y="455">RP-SERVICE-02</text><text x="720" y="455">VISITOR NOTE</text><text x="1120" y="455">EXPORT?</text><text x="110" y="525">07:21</text><text x="330" y="525">SEC-LIAISON</text><text x="720" y="525">SCHEDULE</text><text x="1120" y="525">VIEW</text><text x="110" y="595">08:03</text><text x="330" y="595">DR-VREN-17</text><text x="720" y="595">BIOCHEMISTRY</text><text x="1120" y="595">VIEW</text></g>
<rect x="300" y="338" width="970" height="145" fill="none" stroke="#a31d31" stroke-width="7"/><text x="110" y="730" font-family="monospace" font-size="26" fill="#343036">NON-CLINICAL ACCESS DOES NOT PROVE DATA COPY.</text><text x="110" y="790" font-family="monospace" font-size="26" fill="#343036">SCREEN CAPTURE LOGGING NOT AVAILABLE.</text>
</svg>